<?xml version="1.0" standalone="no"?>
<!DOCTYPE svg PUBLIC "-//W3C//DTD SVG 20010904//EN"
 "http://www.w3.org/TR/2001/REC-SVG-20010904/DTD/svg10.dtd">
<svg version="1.0" xmlns="http://www.w3.org/2000/svg"
 width="617.000000pt" height="617.000000pt" viewBox="0 0 617.000000 617.000000"
 preserveAspectRatio="xMidYMid meet">
<metadata>
Created by potrace 1.14, written by Peter Selinger 2001-2017
</metadata>
<g transform="translate(0.000000,617.000000) scale(0.100000,-0.100000)"
fill="#000000" stroke="none">
<path d="M655 6149 c-242 -40 -452 -195 -560 -414 -88 -180 -80 92 -80 -2645
0 -2737 -8 -2465 80 -2645 76 -152 188 -264 340 -340 180 -88 -92 -80 2645
-80 2737 0 2465 -8 2645 80 152 76 264 188 340 340 88 180 80 -92 80 2645 0
2737 8 2465 -80 2645 -76 152 -188 264 -340 340 -179 88 97 79 -2615 81 -1323
1 -2427 -2 -2455 -7z m868 -1561 c34 -67 67 -130 196 -373 225 -422 367 -691
495 -937 48 -92 91 -170 95 -173 5 -2 45 69 91 158 45 89 86 167 90 172 4 6
47 87 95 180 48 94 109 211 135 260 44 83 155 295 337 643 l75 142 1139 0
1139 0 0 -190 0 -190 -745 0 -745 0 0 -465 0 -465 595 0 595 0 0 -190 0 -190
-595 0 -595 0 0 -535 0 -535 768 -2 767 -3 0 -190 0 -190 -992 -3 c-546 -1
-993 0 -993 2 0 5 -16 131 -30 236 -20 145 -101 802 -130 1050 -5 41 -16 129
-24 195 -9 66 -20 161 -26 210 -6 50 -15 122 -21 160 -20 147 -41 324 -47 412
-4 51 -12 97 -18 103 -7 7 -29 -27 -75 -117 -35 -71 -118 -231 -185 -358 -66
-126 -159 -304 -206 -395 -47 -91 -115 -221 -151 -290 -36 -69 -99 -188 -139
-266 -111 -214 -95 -205 -158 -88 -29 54 -65 122 -80 149 -15 28 -55 104 -90
170 -35 66 -75 143 -90 170 -28 52 -79 147 -158 295 -25 47 -59 112 -77 145
-18 33 -62 116 -98 185 -36 69 -86 163 -112 210 -25 47 -57 111 -72 143 -14
31 -30 57 -34 57 -3 0 -10 -26 -13 -57 -4 -32 -13 -107 -21 -168 -8 -60 -35
-276 -60 -480 -25 -203 -52 -419 -60 -480 -7 -60 -21 -168 -30 -240 -8 -71
-20 -164 -25 -205 -22 -168 -90 -724 -90 -737 0 -10 -43 -13 -226 -13 l-226 0
6 37 c3 21 12 90 21 153 8 63 27 201 41 305 33 250 51 386 69 520 9 61 20 146
25 190 6 44 14 109 20 145 5 36 16 119 25 185 9 66 23 167 31 225 17 121 60
450 74 560 6 41 14 107 20 145 6 39 22 156 36 260 13 105 31 240 39 300 8 61
15 113 15 118 0 4 82 7 183 7 l182 0 38 -72z"/>
</g>
</svg>
